<svg width="20" height="20" viewBox="0 0 20 20" fill="none" xmlns="http://www.w3.org/2000/svg">
<path d="M18.8958 -0.000976562H1.10417C0.494167 -0.000976562 0 0.49319 0 1.10319V18.8957C0 19.5049 0.494167 19.999 1.10417 19.999H10.6833V12.254H8.07667V9.23569H10.6833V7.00986C10.6833 4.42652 12.2608 3.01986 14.5658 3.01986C15.67 3.01986 16.6183 3.10236 16.895 3.13902V5.83902L15.2967 5.83986C14.0433 5.83986 13.8008 6.43569 13.8008 7.30902V9.23652H16.79L16.4008 12.2549H13.8008V19.999H18.8975C19.5058 19.999 20 19.5049 20 18.8949V1.10319C20 0.49319 19.5058 -0.000976562 18.8958 -0.000976562Z" fill="currentColor"/>
</svg>
