<svg width="20" height="20" viewBox="0 0 20 20" fill="none" xmlns="http://www.w3.org/2000/svg">
<path fill-rule="evenodd" clip-rule="evenodd" d="M10 -0.000976562C7.28417 -0.000976562 6.94417 0.0106901 5.8775 0.0590234C2.24583 0.22569 0.2275 2.24069 0.0608333 5.87569C0.0116667 6.94319 0 7.28319 0 9.99902C0 12.7149 0.0116667 13.0557 0.06 14.1224C0.226667 17.754 2.24167 19.7724 5.87667 19.939C6.94417 19.9874 7.28417 19.999 10 19.999C12.7158 19.999 13.0567 19.9874 14.1233 19.939C17.7517 19.7724 19.775 17.7574 19.9392 14.1224C19.9883 13.0557 20 12.7149 20 9.99902C20 7.28319 19.9883 6.94319 19.94 5.87652C19.7767 2.24819 17.7592 0.226523 14.1242 0.0598568C13.0567 0.0106901 12.7158 -0.000976562 10 -0.000976562ZM10 1.80152C12.67 1.80152 12.9867 1.81152 14.0417 1.85986C16.7517 1.98319 18.0175 3.26902 18.1408 5.95902C18.1892 7.01319 18.1983 7.32986 18.1983 9.99986C18.1983 12.6707 18.1883 12.9865 18.1408 14.0407C18.0167 16.7282 16.7542 18.0165 14.0417 18.1399C12.9867 18.1882 12.6717 18.1982 10 18.1982C7.33 18.1982 7.01333 18.1882 5.95917 18.1399C3.2425 18.0157 1.98333 16.724 1.86 14.0399C1.81167 12.9857 1.80167 12.6699 1.80167 9.99902C1.80167 7.32902 1.8125 7.01319 1.86 5.95819C1.98417 3.26902 3.24667 1.98236 5.95917 1.85902C7.01417 1.81152 7.33 1.80152 10 1.80152ZM4.865 9.99902C4.865 7.16319 7.16417 4.86402 10 4.86402C12.8358 4.86402 15.135 7.16319 15.135 9.99902C15.135 12.8357 12.8358 15.1349 10 15.1349C7.16417 15.1349 4.865 12.8349 4.865 9.99902ZM10 13.3324C8.15917 13.3324 6.66667 11.8407 6.66667 9.99902C6.66667 8.15819 8.15917 6.66569 10 6.66569C11.8408 6.66569 13.3333 8.15819 13.3333 9.99902C13.3333 11.8407 11.8408 13.3324 10 13.3324ZM14.1375 4.66152C14.1375 3.99902 14.675 3.46152 15.3383 3.46152C16.0008 3.46152 16.5375 3.99902 16.5375 4.66152C16.5375 5.32402 16.0008 5.86152 15.3383 5.86152C14.675 5.86152 14.1375 5.32402 14.1375 4.66152Z" fill="currentColor"/>
</svg>
