<svg width="20" height="17" viewBox="0 0 20 17" fill="none" xmlns="http://www.w3.org/2000/svg">
<path d="M20 2.17124C19.2642 2.4979 18.4733 2.7179 17.6433 2.81707C18.4908 2.30957 19.1417 1.5054 19.4475 0.54707C18.655 1.01707 17.7767 1.35874 16.8417 1.5429C16.0942 0.745404 15.0267 0.24707 13.8467 0.24707C11.1975 0.24707 9.25083 2.71874 9.84917 5.28457C6.44 5.11374 3.41667 3.4804 1.3925 0.997904C0.3175 2.84207 0.835 5.25457 2.66167 6.47624C1.99 6.45457 1.35667 6.2704 0.804167 5.9629C0.759167 7.86374 2.12167 9.64207 4.095 10.0379C3.5175 10.1946 2.885 10.2312 2.24167 10.1079C2.76333 11.7379 4.27833 12.9237 6.075 12.9571C4.35 14.3096 2.17667 14.9137 0 14.6571C1.81583 15.8212 3.97333 16.5004 6.29 16.5004C13.9083 16.5004 18.2125 10.0662 17.9525 4.2954C18.7542 3.71624 19.45 2.99374 20 2.17124Z" fill="currentColor"/>
</svg>
